<svg width="400" height="400" viewBox="0 0 400 400" fill="none" xmlns="http://www.w3.org/2000/svg">
<path d="M202.44 279.57C182.4 279.57 166.09 263.81 166.09 244.43V136.76C166.09 117.38 182.4 101.62 202.44 101.62C222.48 101.62 238.79 117.38 238.79 136.76V244.43C238.79 263.8 222.48 279.57 202.44 279.57Z" stroke="#006937" stroke-width="5" stroke-miterlimit="10"/>
<path d="M161.09 190.59H248.78C248.78 190.59 248.78 232.24 248.78 246.12C248.78 260 235.87 289.86 202.43 289.56C169 289.27 156.5 259.68 156.29 248.69C156.08 237.69 156.08 190.59 156.08 190.59H161.09Z" fill="#22B573"/>
<path d="M202.44 284.57C179.64 284.57 161.09 266.56 161.09 244.43V136.76C161.09 114.63 179.64 96.62 202.44 96.62C225.24 96.62 243.79 114.63 243.79 136.76V244.43C243.79 266.56 225.24 284.57 202.44 284.57Z" stroke="white" stroke-width="5" stroke-miterlimit="10"/>
<path d="M248.79 190.59H156.1" stroke="#006937" stroke-width="5" stroke-miterlimit="10"/>
<path d="M246.28 185.64H158.62" stroke="white" stroke-width="5" stroke-miterlimit="10"/>
<path d="M235.65 193.14H248.79C248.79 193.14 248.79 234.3 248.79 248.03C248.79 261.76 234.46 289.75 206.2 290.97V193.14H235.65Z" fill="#22B573"/>
<path d="M202.44 91.62C176.84 91.62 156.09 111.83 156.09 136.76V244.43C156.09 269.36 176.84 289.57 202.44 289.57C228.04 289.57 248.79 269.36 248.79 244.43V136.76C248.79 111.83 228.04 91.62 202.44 91.62Z" stroke="#006937" stroke-width="5" stroke-miterlimit="10"/>
<path d="M202.44 95.66V107.57L224.58 116.25L229.01 133.95L230.37 159.49L233.6 183.31L243.79 183.83L242.23 125.85L230.51 107.32L216.54 99.03L202.44 95.66Z" fill="white"/>
<path d="M173.17 148.25H161.09V157.95H173.17V148.25Z" fill="white"/>
<path d="M202.34 104.12C203.721 104.12 204.84 103.001 204.84 101.62C204.84 100.239 203.721 99.12 202.34 99.12C200.959 99.12 199.84 100.239 199.84 101.62C199.84 103.001 200.959 104.12 202.34 104.12Z" fill="#006937"/>
<path d="M166.09 150.68C167.471 150.68 168.59 149.561 168.59 148.18C168.59 146.799 167.471 145.68 166.09 145.68C164.709 145.68 163.59 146.799 163.59 148.18C163.59 149.561 164.709 150.68 166.09 150.68Z" fill="#006937"/>
<path d="M166.09 160.59C167.471 160.59 168.59 159.471 168.59 158.09C168.59 156.709 167.471 155.59 166.09 155.59C164.709 155.59 163.59 156.709 163.59 158.09C163.59 159.471 164.709 160.59 166.09 160.59Z" fill="#006937"/>
<path d="M166.09 185.56C167.471 185.56 168.59 184.441 168.59 183.06C168.59 181.679 167.471 180.56 166.09 180.56C164.709 180.56 163.59 181.679 163.59 183.06C163.59 184.441 164.709 185.56 166.09 185.56Z" fill="#006937"/>
<path d="M202.45 240.21C216.506 240.21 227.9 232.702 227.9 223.44C227.9 214.178 216.506 206.67 202.45 206.67C188.394 206.67 177 214.178 177 223.44C177 232.702 188.394 240.21 202.45 240.21Z" fill="#006838"/>
<path d="M217.62 246.51H187.75V264.98H217.62V246.51Z" fill="#006838"/>
<path d="M187.75 264.97H217.62V246.51H216.07V263.14H187.75V264.97Z" fill="white"/>
<path d="M219.03 213.78H186.35V216.67H219.03V213.78Z" fill="white"/>
<path d="M218.78 220.25H186.1V223.14H218.78V220.25Z" fill="white"/>
<path d="M218.78 227.49H186.1V230.38H218.78V227.49Z" fill="white"/>
</svg>
