<svg width="1363" height="297" viewBox="0 0 1363 297" fill="none" xmlns="http://www.w3.org/2000/svg">
<path d="M0 15C0 6.71573 6.71573 0 15 0H37V297H15C6.71573 297 0 290.284 0 282V15Z" fill="#22B573"/>
<path d="M37 0H1066V297H37V0Z" fill="#F0F0F0"/>
<path d="M105.639 67.1426V49.4062H110.895V67.1426C110.895 68.8535 110.52 70.3242 109.77 71.5547C109.02 72.7734 107.994 73.7109 106.693 74.3672C105.404 75.0234 103.951 75.3516 102.334 75.3516C100.658 75.3516 99.1758 75.0703 97.8867 74.5078C96.5977 73.9453 95.584 73.084 94.8457 71.9238C94.1074 70.752 93.7383 69.2695 93.7383 67.4766H99.0293C99.0293 68.4141 99.1582 69.1582 99.416 69.709C99.6855 70.2598 100.066 70.6523 100.559 70.8867C101.051 71.1211 101.643 71.2383 102.334 71.2383C103.002 71.2383 103.582 71.0801 104.074 70.7637C104.566 70.4473 104.947 69.9844 105.217 69.375C105.498 68.7656 105.639 68.0215 105.639 67.1426ZM123.832 75.3516C122.355 75.3516 121.031 75.1172 119.859 74.6484C118.688 74.168 117.691 73.5059 116.871 72.6621C116.062 71.8184 115.441 70.8398 115.008 69.7266C114.574 68.6016 114.357 67.4062 114.357 66.1406V65.4375C114.357 63.9961 114.562 62.6777 114.973 61.4824C115.383 60.2871 115.969 59.25 116.73 58.3711C117.504 57.4922 118.441 56.8184 119.543 56.3496C120.645 55.8691 121.887 55.6289 123.27 55.6289C124.617 55.6289 125.812 55.8516 126.855 56.2969C127.898 56.7422 128.771 57.375 129.475 58.1953C130.189 59.0156 130.729 60 131.092 61.1484C131.455 62.2852 131.637 63.5508 131.637 64.9453V67.0547H116.52V63.6797H126.662V63.293C126.662 62.5898 126.533 61.9629 126.275 61.4121C126.029 60.8496 125.654 60.4043 125.15 60.0762C124.646 59.748 124.002 59.584 123.217 59.584C122.549 59.584 121.975 59.7305 121.494 60.0234C121.014 60.3164 120.621 60.7266 120.316 61.2539C120.023 61.7812 119.801 62.4023 119.648 63.1172C119.508 63.8203 119.438 64.5938 119.438 65.4375V66.1406C119.438 66.9023 119.543 67.6055 119.754 68.25C119.977 68.8945 120.287 69.4512 120.686 69.9199C121.096 70.3887 121.588 70.752 122.162 71.0098C122.748 71.2676 123.41 71.3965 124.148 71.3965C125.062 71.3965 125.912 71.2207 126.697 70.8691C127.494 70.5059 128.18 69.9609 128.754 69.2344L131.215 71.9062C130.816 72.4805 130.271 73.0312 129.58 73.5586C128.9 74.0859 128.08 74.5195 127.119 74.8594C126.158 75.1875 125.062 75.3516 123.832 75.3516ZM144.785 70.7109V62.2383C144.785 61.6289 144.686 61.1074 144.486 60.6738C144.287 60.2285 143.977 59.8828 143.555 59.6367C143.145 59.3906 142.611 59.2676 141.955 59.2676C141.393 59.2676 140.906 59.3672 140.496 59.5664C140.086 59.7539 139.77 60.0293 139.547 60.3926C139.324 60.7441 139.213 61.1602 139.213 61.6406H134.15C134.15 60.832 134.338 60.0645 134.713 59.3379C135.088 58.6113 135.633 57.9727 136.348 57.4219C137.062 56.8594 137.912 56.4199 138.896 56.1035C139.893 55.7871 141.006 55.6289 142.236 55.6289C143.713 55.6289 145.025 55.875 146.174 56.3672C147.322 56.8594 148.225 57.5977 148.881 58.582C149.549 59.5664 149.883 60.7969 149.883 62.2734V70.4121C149.883 71.4551 149.947 72.3105 150.076 72.9785C150.205 73.6348 150.393 74.209 150.639 74.7012V75H145.523C145.277 74.4844 145.09 73.8398 144.961 73.0664C144.844 72.2812 144.785 71.4961 144.785 70.7109ZM145.453 63.416L145.488 66.2812H142.658C141.99 66.2812 141.41 66.3574 140.918 66.5098C140.426 66.6621 140.021 66.8789 139.705 67.1602C139.389 67.4297 139.154 67.7461 139.002 68.1094C138.861 68.4727 138.791 68.8711 138.791 69.3047C138.791 69.7383 138.891 70.1309 139.09 70.4824C139.289 70.8223 139.576 71.0918 139.951 71.291C140.326 71.4785 140.766 71.5723 141.27 71.5723C142.031 71.5723 142.693 71.4199 143.256 71.1152C143.818 70.8105 144.252 70.4355 144.557 69.9902C144.873 69.5449 145.037 69.123 145.049 68.7246L146.385 70.8691C146.197 71.3496 145.939 71.8477 145.611 72.3633C145.295 72.8789 144.891 73.3652 144.398 73.8223C143.906 74.2676 143.314 74.6367 142.623 74.9297C141.932 75.2109 141.111 75.3516 140.162 75.3516C138.955 75.3516 137.859 75.1113 136.875 74.6309C135.902 74.1387 135.129 73.4648 134.555 72.6094C133.992 71.7422 133.711 70.7578 133.711 69.6562C133.711 68.6602 133.898 67.7754 134.273 67.002C134.648 66.2285 135.199 65.5781 135.926 65.0508C136.664 64.5117 137.584 64.1074 138.686 63.8379C139.787 63.5566 141.064 63.416 142.518 63.416H145.453ZM158.742 60.041V75H153.68V55.9805H158.426L158.742 60.041ZM158.004 64.8223H156.633C156.633 63.416 156.814 62.1504 157.178 61.0254C157.541 59.8887 158.051 58.9219 158.707 58.125C159.363 57.3164 160.143 56.7012 161.045 56.2793C161.959 55.8457 162.979 55.6289 164.104 55.6289C164.994 55.6289 165.809 55.7578 166.547 56.0156C167.285 56.2734 167.918 56.6836 168.445 57.2461C168.984 57.8086 169.395 58.5527 169.676 59.4785C169.969 60.4043 170.115 61.5352 170.115 62.8711V75H165.018V62.8535C165.018 62.0098 164.9 61.3535 164.666 60.8848C164.432 60.416 164.086 60.0879 163.629 59.9004C163.184 59.7012 162.633 59.6016 161.977 59.6016C161.297 59.6016 160.705 59.7363 160.201 60.0059C159.709 60.2754 159.299 60.6504 158.971 61.1309C158.654 61.5996 158.414 62.1504 158.25 62.7832C158.086 63.416 158.004 64.0957 158.004 64.8223ZM179.027 59.6367V82.3125H173.965V55.9805H178.658L179.027 59.6367ZM191.068 65.2793V65.6484C191.068 67.0312 190.904 68.3145 190.576 69.498C190.26 70.6816 189.791 71.7129 189.17 72.5918C188.549 73.459 187.775 74.1387 186.85 74.6309C185.936 75.1113 184.881 75.3516 183.686 75.3516C182.525 75.3516 181.518 75.1172 180.662 74.6484C179.807 74.1797 179.086 73.5234 178.5 72.6797C177.926 71.8242 177.463 70.834 177.111 69.709C176.76 68.584 176.49 67.377 176.303 66.0879V65.1211C176.49 63.7383 176.76 62.4727 177.111 61.3242C177.463 60.1641 177.926 59.1621 178.5 58.3184C179.086 57.4629 179.801 56.8008 180.645 56.332C181.5 55.8633 182.502 55.6289 183.65 55.6289C184.857 55.6289 185.918 55.8574 186.832 56.3145C187.758 56.7715 188.531 57.4277 189.152 58.2832C189.785 59.1387 190.26 60.1582 190.576 61.3418C190.904 62.5254 191.068 63.8379 191.068 65.2793ZM185.988 65.6484V65.2793C185.988 64.4707 185.918 63.7266 185.777 63.0469C185.648 62.3555 185.438 61.752 185.145 61.2363C184.863 60.7207 184.488 60.3223 184.02 60.041C183.562 59.748 183.006 59.6016 182.35 59.6016C181.658 59.6016 181.066 59.7129 180.574 59.9355C180.094 60.1582 179.701 60.4805 179.396 60.9023C179.092 61.3242 178.863 61.8281 178.711 62.4141C178.559 63 178.465 63.6621 178.43 64.4004V66.8438C178.488 67.7109 178.652 68.4902 178.922 69.1816C179.191 69.8613 179.607 70.4004 180.17 70.7988C180.732 71.1973 181.471 71.3965 182.385 71.3965C183.053 71.3965 183.615 71.25 184.072 70.957C184.529 70.6523 184.898 70.2363 185.18 69.709C185.473 69.1816 185.678 68.5723 185.795 67.8809C185.924 67.1895 185.988 66.4453 185.988 65.6484ZM199.559 55.9805V75H194.479V55.9805H199.559ZM194.162 51.0234C194.162 50.2852 194.42 49.6758 194.936 49.1953C195.451 48.7148 196.143 48.4746 197.01 48.4746C197.865 48.4746 198.551 48.7148 199.066 49.1953C199.594 49.6758 199.857 50.2852 199.857 51.0234C199.857 51.7617 199.594 52.3711 199.066 52.8516C198.551 53.332 197.865 53.5723 197.01 53.5723C196.143 53.5723 195.451 53.332 194.936 52.8516C194.42 52.3711 194.162 51.7617 194.162 51.0234ZM212.496 75.3516C211.02 75.3516 209.695 75.1172 208.523 74.6484C207.352 74.168 206.355 73.5059 205.535 72.6621C204.727 71.8184 204.105 70.8398 203.672 69.7266C203.238 68.6016 203.021 67.4062 203.021 66.1406V65.4375C203.021 63.9961 203.227 62.6777 203.637 61.4824C204.047 60.2871 204.633 59.25 205.395 58.3711C206.168 57.4922 207.105 56.8184 208.207 56.3496C209.309 55.8691 210.551 55.6289 211.934 55.6289C213.281 55.6289 214.477 55.8516 215.52 56.2969C216.562 56.7422 217.436 57.375 218.139 58.1953C218.854 59.0156 219.393 60 219.756 61.1484C220.119 62.2852 220.301 63.5508 220.301 64.9453V67.0547H205.184V63.6797H215.326V63.293C215.326 62.5898 215.197 61.9629 214.939 61.4121C214.693 60.8496 214.318 60.4043 213.814 60.0762C213.311 59.748 212.666 59.584 211.881 59.584C211.213 59.584 210.639 59.7305 210.158 60.0234C209.678 60.3164 209.285 60.7266 208.98 61.2539C208.688 61.7812 208.465 62.4023 208.312 63.1172C208.172 63.8203 208.102 64.5938 208.102 65.4375V66.1406C208.102 66.9023 208.207 67.6055 208.418 68.25C208.641 68.8945 208.951 69.4512 209.35 69.9199C209.76 70.3887 210.252 70.752 210.826 71.0098C211.412 71.2676 212.074 71.3965 212.812 71.3965C213.727 71.3965 214.576 71.2207 215.361 70.8691C216.158 70.5059 216.844 69.9609 217.418 69.2344L219.879 71.9062C219.48 72.4805 218.936 73.0312 218.244 73.5586C217.564 74.0859 216.744 74.5195 215.783 74.8594C214.822 75.1875 213.727 75.3516 212.496 75.3516ZM228.246 60.1289V75H223.184V55.9805H227.947L228.246 60.1289ZM233.977 55.8574L233.889 60.5508C233.643 60.5156 233.344 60.4863 232.992 60.4629C232.652 60.4277 232.342 60.4102 232.061 60.4102C231.346 60.4102 230.725 60.5039 230.197 60.6914C229.682 60.8672 229.248 61.1309 228.896 61.4824C228.557 61.834 228.299 62.2617 228.123 62.7656C227.959 63.2695 227.865 63.8438 227.842 64.4883L226.822 64.1719C226.822 62.9414 226.945 61.8105 227.191 60.7793C227.438 59.7363 227.795 58.8281 228.264 58.0547C228.744 57.2812 229.33 56.6836 230.021 56.2617C230.713 55.8398 231.504 55.6289 232.395 55.6289C232.676 55.6289 232.963 55.6523 233.256 55.6992C233.549 55.7344 233.789 55.7871 233.977 55.8574ZM241.43 60.1289V75H236.367V55.9805H241.131L241.43 60.1289ZM247.16 55.8574L247.072 60.5508C246.826 60.5156 246.527 60.4863 246.176 60.4629C245.836 60.4277 245.525 60.4102 245.244 60.4102C244.529 60.4102 243.908 60.5039 243.381 60.6914C242.865 60.8672 242.432 61.1309 242.08 61.4824C241.74 61.834 241.482 62.2617 241.307 62.7656C241.143 63.2695 241.049 63.8438 241.025 64.4883L240.006 64.1719C240.006 62.9414 240.129 61.8105 240.375 60.7793C240.621 59.7363 240.979 58.8281 241.447 58.0547C241.928 57.2812 242.514 56.6836 243.205 56.2617C243.896 55.8398 244.688 55.6289 245.578 55.6289C245.859 55.6289 246.146 55.6523 246.439 55.6992C246.732 55.7344 246.973 55.7871 247.16 55.8574ZM257.953 75.3516C256.477 75.3516 255.152 75.1172 253.98 74.6484C252.809 74.168 251.812 73.5059 250.992 72.6621C250.184 71.8184 249.562 70.8398 249.129 69.7266C248.695 68.6016 248.479 67.4062 248.479 66.1406V65.4375C248.479 63.9961 248.684 62.6777 249.094 61.4824C249.504 60.2871 250.09 59.25 250.852 58.3711C251.625 57.4922 252.562 56.8184 253.664 56.3496C254.766 55.8691 256.008 55.6289 257.391 55.6289C258.738 55.6289 259.934 55.8516 260.977 56.2969C262.02 56.7422 262.893 57.375 263.596 58.1953C264.311 59.0156 264.85 60 265.213 61.1484C265.576 62.2852 265.758 63.5508 265.758 64.9453V67.0547H250.641V63.6797H260.783V63.293C260.783 62.5898 260.654 61.9629 260.396 61.4121C260.15 60.8496 259.775 60.4043 259.271 60.0762C258.768 59.748 258.123 59.584 257.338 59.584C256.67 59.584 256.096 59.7305 255.615 60.0234C255.135 60.3164 254.742 60.7266 254.438 61.2539C254.145 61.7812 253.922 62.4023 253.77 63.1172C253.629 63.8203 253.559 64.5938 253.559 65.4375V66.1406C253.559 66.9023 253.664 67.6055 253.875 68.25C254.098 68.8945 254.408 69.4512 254.807 69.9199C255.217 70.3887 255.709 70.752 256.283 71.0098C256.869 71.2676 257.531 71.3965 258.27 71.3965C259.184 71.3965 260.033 71.2207 260.818 70.8691C261.615 70.5059 262.301 69.9609 262.875 69.2344L265.336 71.9062C264.938 72.4805 264.393 73.0312 263.701 73.5586C263.021 74.0859 262.201 74.5195 261.24 74.8594C260.279 75.1875 259.184 75.3516 257.953 75.3516ZM298.752 49.4062V75H293.479L283.195 57.8438V75H277.922V49.4062H283.195L293.496 66.5801V49.4062H298.752ZM313.289 70.7109V62.2383C313.289 61.6289 313.189 61.1074 312.99 60.6738C312.791 60.2285 312.48 59.8828 312.059 59.6367C311.648 59.3906 311.115 59.2676 310.459 59.2676C309.896 59.2676 309.41 59.3672 309 59.5664C308.59 59.7539 308.273 60.0293 308.051 60.3926C307.828 60.7441 307.717 61.1602 307.717 61.6406H302.654C302.654 60.832 302.842 60.0645 303.217 59.3379C303.592 58.6113 304.137 57.9727 304.852 57.4219C305.566 56.8594 306.416 56.4199 307.4 56.1035C308.396 55.7871 309.51 55.6289 310.74 55.6289C312.217 55.6289 313.529 55.875 314.678 56.3672C315.826 56.8594 316.729 57.5977 317.385 58.582C318.053 59.5664 318.387 60.7969 318.387 62.2734V70.4121C318.387 71.4551 318.451 72.3105 318.58 72.9785C318.709 73.6348 318.896 74.209 319.143 74.7012V75H314.027C313.781 74.4844 313.594 73.8398 313.465 73.0664C313.348 72.2812 313.289 71.4961 313.289 70.7109ZM313.957 63.416L313.992 66.2812H311.162C310.494 66.2812 309.914 66.3574 309.422 66.5098C308.93 66.6621 308.525 66.8789 308.209 67.1602C307.893 67.4297 307.658 67.7461 307.506 68.1094C307.365 68.4727 307.295 68.8711 307.295 69.3047C307.295 69.7383 307.395 70.1309 307.594 70.4824C307.793 70.8223 308.08 71.0918 308.455 71.291C308.83 71.4785 309.27 71.5723 309.773 71.5723C310.535 71.5723 311.197 71.4199 311.76 71.1152C312.322 70.8105 312.756 70.4355 313.061 69.9902C313.377 69.5449 313.541 69.123 313.553 68.7246L314.889 70.8691C314.701 71.3496 314.443 71.8477 314.115 72.3633C313.799 72.8789 313.395 73.3652 312.902 73.8223C312.41 74.2676 311.818 74.6367 311.127 74.9297C310.436 75.2109 309.615 75.3516 308.666 75.3516C307.459 75.3516 306.363 75.1113 305.379 74.6309C304.406 74.1387 303.633 73.4648 303.059 72.6094C302.496 71.7422 302.215 70.7578 302.215 69.6562C302.215 68.6602 302.402 67.7754 302.777 67.002C303.152 66.2285 303.703 65.5781 304.43 65.0508C305.168 64.5117 306.088 64.1074 307.189 63.8379C308.291 63.5566 309.568 63.416 311.021 63.416H313.957ZM332.572 69.7441C332.572 69.3809 332.467 69.0527 332.256 68.7598C332.045 68.4668 331.652 68.1973 331.078 67.9512C330.516 67.6934 329.701 67.459 328.635 67.248C327.674 67.0371 326.777 66.7734 325.945 66.457C325.125 66.1289 324.41 65.7363 323.801 65.2793C323.203 64.8223 322.734 64.2832 322.395 63.6621C322.055 63.0293 321.885 62.3086 321.885 61.5C321.885 60.7031 322.055 59.9531 322.395 59.25C322.746 58.5469 323.244 57.9258 323.889 57.3867C324.545 56.8359 325.342 56.4082 326.279 56.1035C327.229 55.7871 328.295 55.6289 329.479 55.6289C331.131 55.6289 332.549 55.8926 333.732 56.4199C334.928 56.9473 335.842 57.6738 336.475 58.5996C337.119 59.5137 337.441 60.5566 337.441 61.7285H332.379C332.379 61.2363 332.273 60.7969 332.062 60.4102C331.863 60.0117 331.547 59.7012 331.113 59.4785C330.691 59.2441 330.141 59.127 329.461 59.127C328.898 59.127 328.412 59.2266 328.002 59.4258C327.592 59.6133 327.275 59.8711 327.053 60.1992C326.842 60.5156 326.736 60.8672 326.736 61.2539C326.736 61.5469 326.795 61.8105 326.912 62.0449C327.041 62.2676 327.246 62.4727 327.527 62.6602C327.809 62.8477 328.172 63.0234 328.617 63.1875C329.074 63.3398 329.637 63.4805 330.305 63.6094C331.676 63.8906 332.9 64.2598 333.979 64.7168C335.057 65.1621 335.912 65.7715 336.545 66.5449C337.178 67.3066 337.494 68.3086 337.494 69.5508C337.494 70.3945 337.307 71.168 336.932 71.8711C336.557 72.5742 336.018 73.1895 335.314 73.7168C334.611 74.2324 333.768 74.6367 332.783 74.9297C331.811 75.2109 330.715 75.3516 329.496 75.3516C327.727 75.3516 326.227 75.0352 324.996 74.4023C323.777 73.7695 322.852 72.9668 322.219 71.9941C321.598 71.0098 321.287 70.002 321.287 68.9707H326.086C326.109 69.6621 326.285 70.2188 326.613 70.6406C326.953 71.0625 327.381 71.3672 327.896 71.5547C328.424 71.7422 328.992 71.8359 329.602 71.8359C330.258 71.8359 330.803 71.748 331.236 71.5723C331.67 71.3848 331.998 71.1387 332.221 70.834C332.455 70.5176 332.572 70.1543 332.572 69.7441ZM345.721 48V75H340.658V48H345.721ZM345 64.8223H343.611C343.623 63.498 343.799 62.2793 344.139 61.166C344.479 60.041 344.965 59.0684 345.598 58.248C346.23 57.416 346.986 56.7715 347.865 56.3145C348.756 55.8574 349.74 55.6289 350.818 55.6289C351.756 55.6289 352.605 55.7637 353.367 56.0332C354.141 56.291 354.803 56.7129 355.354 57.2988C355.916 57.873 356.35 58.6289 356.654 59.5664C356.959 60.5039 357.111 61.6406 357.111 62.9766V75H352.014V62.9414C352.014 62.0977 351.891 61.4355 351.645 60.9551C351.41 60.4629 351.064 60.1172 350.607 59.918C350.162 59.707 349.611 59.6016 348.955 59.6016C348.229 59.6016 347.607 59.7363 347.092 60.0059C346.588 60.2754 346.184 60.6504 345.879 61.1309C345.574 61.5996 345.352 62.1504 345.211 62.7832C345.07 63.416 345 64.0957 345 64.8223ZM369.715 75.3516C368.238 75.3516 366.914 75.1172 365.742 74.6484C364.57 74.168 363.574 73.5059 362.754 72.6621C361.945 71.8184 361.324 70.8398 360.891 69.7266C360.457 68.6016 360.24 67.4062 360.24 66.1406V65.4375C360.24 63.9961 360.445 62.6777 360.855 61.4824C361.266 60.2871 361.852 59.25 362.613 58.3711C363.387 57.4922 364.324 56.8184 365.426 56.3496C366.527 55.8691 367.77 55.6289 369.152 55.6289C370.5 55.6289 371.695 55.8516 372.738 56.2969C373.781 56.7422 374.654 57.375 375.357 58.1953C376.072 59.0156 376.611 60 376.975 61.1484C377.338 62.2852 377.52 63.5508 377.52 64.9453V67.0547H362.402V63.6797H372.545V63.293C372.545 62.5898 372.416 61.9629 372.158 61.4121C371.912 60.8496 371.537 60.4043 371.033 60.0762C370.529 59.748 369.885 59.584 369.1 59.584C368.432 59.584 367.857 59.7305 367.377 60.0234C366.896 60.3164 366.504 60.7266 366.199 61.2539C365.906 61.7812 365.684 62.4023 365.531 63.1172C365.391 63.8203 365.32 64.5938 365.32 65.4375V66.1406C365.32 66.9023 365.426 67.6055 365.637 68.25C365.859 68.8945 366.17 69.4512 366.568 69.9199C366.979 70.3887 367.471 70.752 368.045 71.0098C368.631 71.2676 369.293 71.3965 370.031 71.3965C370.945 71.3965 371.795 71.2207 372.58 70.8691C373.377 70.5059 374.062 69.9609 374.637 69.2344L377.098 71.9062C376.699 72.4805 376.154 73.0312 375.463 73.5586C374.783 74.0859 373.963 74.5195 373.002 74.8594C372.041 75.1875 370.945 75.3516 369.715 75.3516ZM386.854 75H381.756V54.293C381.756 52.8516 382.037 51.6387 382.6 50.6543C383.174 49.6582 383.977 48.9082 385.008 48.4043C386.051 47.8887 387.287 47.6309 388.717 47.6309C389.186 47.6309 389.637 47.666 390.07 47.7363C390.504 47.7949 390.926 47.8711 391.336 47.9648L391.283 51.7793C391.061 51.7207 390.826 51.6797 390.58 51.6562C390.334 51.6328 390.047 51.6211 389.719 51.6211C389.109 51.6211 388.588 51.7266 388.154 51.9375C387.732 52.1367 387.41 52.4355 387.188 52.834C386.965 53.2324 386.854 53.7188 386.854 54.293V75ZM390.65 55.9805V59.5664H378.926V55.9805H390.65Z" fill="#888888"/>
<path d="M111.922 126.492H102.023V119.082H111.922C113.271 119.082 114.365 118.854 115.203 118.398C116.042 117.943 116.652 117.314 117.035 116.512C117.436 115.691 117.637 114.771 117.637 113.75C117.637 112.656 117.436 111.645 117.035 110.715C116.652 109.785 116.042 109.038 115.203 108.473C114.365 107.889 113.271 107.598 111.922 107.598H105.633V140H96.0352V100.188H111.922C115.112 100.188 117.855 100.771 120.152 101.938C122.467 103.104 124.245 104.708 125.484 106.75C126.724 108.773 127.344 111.089 127.344 113.695C127.344 116.266 126.724 118.508 125.484 120.422C124.245 122.336 122.467 123.831 120.152 124.906C117.855 125.964 115.112 126.492 111.922 126.492ZM141.098 98V140H131.883V98H141.098ZM140.004 124.195L137.844 124.25C137.844 122.172 138.099 120.258 138.609 118.508C139.12 116.758 139.849 115.236 140.797 113.941C141.745 112.647 142.884 111.645 144.215 110.934C145.546 110.223 147.022 109.867 148.645 109.867C150.103 109.867 151.434 110.077 152.637 110.496C153.858 110.915 154.906 111.59 155.781 112.52C156.674 113.449 157.358 114.661 157.832 116.156C158.324 117.651 158.57 119.474 158.57 121.625V140H149.301V121.57C149.301 120.367 149.128 119.438 148.781 118.781C148.453 118.107 147.979 117.642 147.359 117.387C146.74 117.113 145.983 116.977 145.09 116.977C144.014 116.977 143.139 117.159 142.465 117.523C141.79 117.888 141.271 118.398 140.906 119.055C140.56 119.693 140.323 120.449 140.195 121.324C140.068 122.199 140.004 123.156 140.004 124.195ZM179.051 132.562V120.367C179.051 119.529 178.932 118.809 178.695 118.207C178.458 117.605 178.085 117.141 177.574 116.812C177.064 116.466 176.38 116.293 175.523 116.293C174.831 116.293 174.238 116.411 173.746 116.648C173.254 116.885 172.88 117.241 172.625 117.715C172.37 118.189 172.242 118.79 172.242 119.52H163.027C163.027 118.152 163.328 116.885 163.93 115.719C164.549 114.534 165.424 113.504 166.555 112.629C167.703 111.754 169.07 111.079 170.656 110.605C172.26 110.113 174.047 109.867 176.016 109.867C178.367 109.867 180.464 110.259 182.305 111.043C184.164 111.827 185.632 113.003 186.707 114.57C187.783 116.12 188.32 118.07 188.32 120.422V132.535C188.32 134.467 188.43 135.935 188.648 136.938C188.867 137.922 189.177 138.788 189.578 139.535V140H180.336C179.898 139.089 179.57 137.977 179.352 136.664C179.151 135.333 179.051 133.966 179.051 132.562ZM180.172 121.926L180.227 126.848H176.152C175.296 126.848 174.566 126.966 173.965 127.203C173.382 127.44 172.908 127.768 172.543 128.188C172.197 128.589 171.941 129.044 171.777 129.555C171.632 130.065 171.559 130.603 171.559 131.168C171.559 131.715 171.686 132.207 171.941 132.645C172.215 133.064 172.579 133.392 173.035 133.629C173.491 133.866 174.001 133.984 174.566 133.984C175.587 133.984 176.453 133.793 177.164 133.41C177.893 133.009 178.449 132.526 178.832 131.961C179.215 131.396 179.406 130.867 179.406 130.375L181.43 134.148C181.065 134.878 180.646 135.616 180.172 136.363C179.716 137.111 179.142 137.803 178.449 138.441C177.775 139.061 176.945 139.572 175.961 139.973C174.977 140.355 173.783 140.547 172.379 140.547C170.556 140.547 168.879 140.173 167.348 139.426C165.835 138.678 164.622 137.639 163.711 136.309C162.799 134.96 162.344 133.41 162.344 131.66C162.344 130.129 162.617 128.762 163.164 127.559C163.729 126.355 164.577 125.335 165.707 124.496C166.837 123.658 168.277 123.02 170.027 122.582C171.777 122.145 173.837 121.926 176.207 121.926H180.172ZM202.73 117.742V140H193.516V110.414H202.129L202.73 117.742ZM211.48 110.195L211.316 118.754C210.952 118.717 210.46 118.672 209.84 118.617C209.22 118.562 208.701 118.535 208.281 118.535C207.206 118.535 206.276 118.663 205.492 118.918C204.727 119.155 204.089 119.52 203.578 120.012C203.086 120.486 202.721 121.087 202.484 121.816C202.266 122.546 202.165 123.393 202.184 124.359L200.516 123.266C200.516 121.279 200.707 119.474 201.09 117.852C201.491 116.211 202.056 114.798 202.785 113.613C203.514 112.41 204.398 111.49 205.438 110.852C206.477 110.195 207.643 109.867 208.938 109.867C209.393 109.867 209.84 109.895 210.277 109.949C210.733 110.004 211.134 110.086 211.48 110.195ZM223.949 116.676V140H214.734V110.414H223.375L223.949 116.676ZM222.828 124.195L220.723 124.25C220.723 122.172 220.969 120.258 221.461 118.508C221.953 116.758 222.682 115.236 223.648 113.941C224.615 112.647 225.799 111.645 227.203 110.934C228.625 110.223 230.266 109.867 232.125 109.867C233.419 109.867 234.595 110.068 235.652 110.469C236.71 110.852 237.621 111.462 238.387 112.301C239.152 113.121 239.736 114.197 240.137 115.527C240.556 116.84 240.766 118.417 240.766 120.258V140H231.551V121.434C231.551 120.176 231.405 119.228 231.113 118.59C230.84 117.952 230.439 117.523 229.91 117.305C229.382 117.086 228.734 116.977 227.969 116.977C227.167 116.977 226.447 117.159 225.809 117.523C225.171 117.888 224.624 118.398 224.168 119.055C223.73 119.693 223.393 120.449 223.156 121.324C222.938 122.199 222.828 123.156 222.828 124.195ZM239.727 124.195L237.156 124.25C237.156 122.172 237.384 120.258 237.84 118.508C238.314 116.758 239.016 115.236 239.945 113.941C240.893 112.647 242.069 111.645 243.473 110.934C244.876 110.223 246.508 109.867 248.367 109.867C249.716 109.867 250.956 110.068 252.086 110.469C253.216 110.87 254.191 111.517 255.012 112.41C255.832 113.303 256.47 114.488 256.926 115.965C257.382 117.423 257.609 119.228 257.609 121.379V140H248.367V121.379C248.367 120.158 248.221 119.237 247.93 118.617C247.656 117.979 247.255 117.551 246.727 117.332C246.198 117.095 245.569 116.977 244.84 116.977C243.965 116.977 243.208 117.159 242.57 117.523C241.932 117.888 241.395 118.398 240.957 119.055C240.538 119.693 240.228 120.449 240.027 121.324C239.827 122.199 239.727 123.156 239.727 124.195ZM278.254 132.562V120.367C278.254 119.529 278.135 118.809 277.898 118.207C277.661 117.605 277.288 117.141 276.777 116.812C276.267 116.466 275.583 116.293 274.727 116.293C274.034 116.293 273.441 116.411 272.949 116.648C272.457 116.885 272.083 117.241 271.828 117.715C271.573 118.189 271.445 118.79 271.445 119.52H262.23C262.23 118.152 262.531 116.885 263.133 115.719C263.753 114.534 264.628 113.504 265.758 112.629C266.906 111.754 268.273 111.079 269.859 110.605C271.464 110.113 273.25 109.867 275.219 109.867C277.57 109.867 279.667 110.259 281.508 111.043C283.367 111.827 284.835 113.003 285.91 114.57C286.986 116.12 287.523 118.07 287.523 120.422V132.535C287.523 134.467 287.633 135.935 287.852 136.938C288.07 137.922 288.38 138.788 288.781 139.535V140H279.539C279.102 139.089 278.773 137.977 278.555 136.664C278.354 135.333 278.254 133.966 278.254 132.562ZM279.375 121.926L279.43 126.848H275.355C274.499 126.848 273.77 126.966 273.168 127.203C272.585 127.44 272.111 127.768 271.746 128.188C271.4 128.589 271.145 129.044 270.98 129.555C270.835 130.065 270.762 130.603 270.762 131.168C270.762 131.715 270.889 132.207 271.145 132.645C271.418 133.064 271.783 133.392 272.238 133.629C272.694 133.866 273.204 133.984 273.77 133.984C274.79 133.984 275.656 133.793 276.367 133.41C277.096 133.009 277.652 132.526 278.035 131.961C278.418 131.396 278.609 130.867 278.609 130.375L280.633 134.148C280.268 134.878 279.849 135.616 279.375 136.363C278.919 137.111 278.345 137.803 277.652 138.441C276.978 139.061 276.148 139.572 275.164 139.973C274.18 140.355 272.986 140.547 271.582 140.547C269.759 140.547 268.082 140.173 266.551 139.426C265.038 138.678 263.826 137.639 262.914 136.309C262.003 134.96 261.547 133.41 261.547 131.66C261.547 130.129 261.82 128.762 262.367 127.559C262.932 126.355 263.78 125.335 264.91 124.496C266.04 123.658 267.48 123.02 269.23 122.582C270.98 122.145 273.04 121.926 275.41 121.926H279.375ZM308.141 130.621L316.426 100.188H327.172L313.746 140H306.801L308.141 130.621ZM300.621 100.188L308.906 130.621L310.301 140H303.273L289.93 100.188H300.621ZM342.785 140.547C340.379 140.547 338.228 140.173 336.332 139.426C334.436 138.66 332.832 137.612 331.52 136.281C330.225 134.951 329.232 133.419 328.539 131.688C327.865 129.956 327.527 128.124 327.527 126.191V125.152C327.527 122.983 327.828 120.978 328.43 119.137C329.031 117.277 329.924 115.655 331.109 114.27C332.294 112.884 333.78 111.809 335.566 111.043C337.353 110.259 339.431 109.867 341.801 109.867C343.897 109.867 345.775 110.204 347.434 110.879C349.092 111.553 350.496 112.52 351.645 113.777C352.811 115.035 353.695 116.557 354.297 118.344C354.917 120.13 355.227 122.135 355.227 124.359V128.105H331.055V122.336H346.23V121.625C346.249 120.641 346.076 119.802 345.711 119.109C345.365 118.417 344.854 117.888 344.18 117.523C343.505 117.159 342.685 116.977 341.719 116.977C340.716 116.977 339.887 117.195 339.23 117.633C338.592 118.07 338.091 118.672 337.727 119.438C337.38 120.185 337.134 121.051 336.988 122.035C336.842 123.02 336.77 124.059 336.77 125.152V126.191C336.77 127.285 336.915 128.279 337.207 129.172C337.517 130.065 337.954 130.831 338.52 131.469C339.103 132.089 339.796 132.572 340.598 132.918C341.418 133.264 342.348 133.438 343.387 133.438C344.645 133.438 345.884 133.201 347.105 132.727C348.327 132.253 349.375 131.469 350.25 130.375L354.434 135.352C353.832 136.208 352.975 137.038 351.863 137.84C350.77 138.642 349.457 139.298 347.926 139.809C346.395 140.301 344.681 140.547 342.785 140.547ZM368.023 116.73V140H358.809V110.414H367.449L368.023 116.73ZM366.93 124.195L364.77 124.25C364.77 121.99 365.043 119.975 365.59 118.207C366.137 116.421 366.911 114.908 367.914 113.668C368.917 112.428 370.111 111.49 371.496 110.852C372.9 110.195 374.458 109.867 376.172 109.867C377.539 109.867 378.788 110.068 379.918 110.469C381.066 110.87 382.051 111.517 382.871 112.41C383.71 113.303 384.348 114.488 384.785 115.965C385.241 117.423 385.469 119.228 385.469 121.379V140H376.199V121.352C376.199 120.167 376.035 119.264 375.707 118.645C375.379 118.007 374.905 117.569 374.285 117.332C373.665 117.095 372.909 116.977 372.016 116.977C371.068 116.977 370.266 117.159 369.609 117.523C368.953 117.888 368.424 118.398 368.023 119.055C367.641 119.693 367.358 120.449 367.176 121.324C367.012 122.199 366.93 123.156 366.93 124.195ZM407.59 133.219V98H416.859V140H408.547L407.59 133.219ZM389.434 125.562V124.988C389.434 122.746 389.68 120.704 390.172 118.863C390.664 117.004 391.393 115.409 392.359 114.078C393.326 112.729 394.529 111.69 395.969 110.961C397.409 110.232 399.068 109.867 400.945 109.867C402.622 109.867 404.09 110.259 405.348 111.043C406.605 111.809 407.681 112.884 408.574 114.27C409.467 115.655 410.197 117.277 410.762 119.137C411.327 120.978 411.755 122.965 412.047 125.098V125.781C411.755 127.786 411.327 129.682 410.762 131.469C410.197 133.237 409.467 134.805 408.574 136.172C407.681 137.539 406.596 138.615 405.32 139.398C404.062 140.164 402.586 140.547 400.891 140.547C399.013 140.547 397.354 140.173 395.914 139.426C394.492 138.678 393.298 137.63 392.332 136.281C391.384 134.932 390.664 133.346 390.172 131.523C389.68 129.701 389.434 127.714 389.434 125.562ZM398.648 124.988V125.562C398.648 126.674 398.721 127.704 398.867 128.652C399.013 129.6 399.259 130.439 399.605 131.168C399.97 131.879 400.444 132.435 401.027 132.836C401.629 133.237 402.367 133.438 403.242 133.438C404.427 133.438 405.402 133.155 406.168 132.59C406.952 132.025 407.526 131.223 407.891 130.184C408.273 129.145 408.438 127.923 408.383 126.52V124.359C408.419 123.156 408.337 122.099 408.137 121.188C407.936 120.258 407.617 119.483 407.18 118.863C406.76 118.243 406.223 117.779 405.566 117.469C404.928 117.141 404.172 116.977 403.297 116.977C402.44 116.977 401.711 117.177 401.109 117.578C400.526 117.979 400.052 118.544 399.688 119.273C399.323 119.984 399.059 120.832 398.895 121.816C398.73 122.783 398.648 123.84 398.648 124.988Z" fill="black"/>
<rect x="93" y="178" width="917" height="77" rx="10" fill="#D3D3D3"/>
<rect x="111" y="196" width="148" height="41" rx="3" fill="#424242"/>
<rect x="111" y="196" width="148" height="41" rx="3" stroke="#424242" stroke-width="4"/>
<path d="M134.234 210.203H139.271C140.255 210.203 141.11 210.35 141.837 210.643C142.563 210.936 143.123 211.369 143.516 211.943C143.914 212.518 144.113 213.227 144.113 214.07C144.113 214.803 143.999 215.415 143.771 215.907C143.542 216.399 143.223 216.807 142.812 217.129C142.408 217.445 141.937 217.706 141.397 217.911L140.387 218.482H136.159L136.142 216.101H139.271C139.663 216.101 139.988 216.03 140.246 215.89C140.504 215.749 140.697 215.55 140.826 215.292C140.961 215.028 141.028 214.715 141.028 214.352C141.028 213.982 140.961 213.666 140.826 213.402C140.691 213.139 140.492 212.937 140.229 212.796C139.971 212.655 139.651 212.585 139.271 212.585H137.319V223H134.234V210.203ZM141.239 223L138.409 217.34L141.679 217.322L144.544 222.868V223H141.239ZM150.441 223.176C149.668 223.176 148.977 223.056 148.367 222.815C147.758 222.569 147.242 222.232 146.82 221.805C146.404 221.377 146.085 220.885 145.862 220.328C145.646 219.771 145.537 219.183 145.537 218.562V218.228C145.537 217.53 145.634 216.886 145.827 216.294C146.021 215.696 146.308 215.175 146.688 214.729C147.069 214.284 147.547 213.938 148.121 213.692C148.695 213.44 149.363 213.314 150.125 213.314C150.799 213.314 151.402 213.423 151.936 213.64C152.469 213.856 152.92 214.167 153.289 214.571C153.664 214.976 153.948 215.465 154.142 216.039C154.341 216.613 154.44 217.258 154.44 217.973V219.177H146.671V217.322H151.549V217.094C151.555 216.777 151.499 216.508 151.382 216.285C151.271 216.062 151.106 215.893 150.89 215.775C150.673 215.658 150.409 215.6 150.099 215.6C149.776 215.6 149.51 215.67 149.299 215.811C149.094 215.951 148.933 216.145 148.815 216.391C148.704 216.631 148.625 216.909 148.578 217.226C148.531 217.542 148.508 217.876 148.508 218.228V218.562C148.508 218.913 148.555 219.232 148.648 219.52C148.748 219.807 148.889 220.053 149.07 220.258C149.258 220.457 149.48 220.612 149.738 220.724C150.002 220.835 150.301 220.891 150.635 220.891C151.039 220.891 151.438 220.814 151.83 220.662C152.223 220.51 152.56 220.258 152.841 219.906L154.186 221.506C153.992 221.781 153.717 222.048 153.359 222.306C153.008 222.563 152.586 222.774 152.094 222.938C151.602 223.097 151.051 223.176 150.441 223.176ZM160.584 220.609V216.689C160.584 216.42 160.546 216.188 160.47 215.995C160.394 215.802 160.273 215.652 160.109 215.547C159.945 215.436 159.726 215.38 159.45 215.38C159.228 215.38 159.037 215.418 158.879 215.494C158.721 215.57 158.601 215.685 158.519 215.837C158.437 215.989 158.396 216.183 158.396 216.417H155.434C155.434 215.978 155.53 215.57 155.724 215.195C155.923 214.814 156.204 214.483 156.567 214.202C156.937 213.921 157.376 213.704 157.886 213.552C158.401 213.394 158.976 213.314 159.608 213.314C160.364 213.314 161.038 213.44 161.63 213.692C162.228 213.944 162.699 214.322 163.045 214.826C163.391 215.324 163.563 215.951 163.563 216.707V220.601C163.563 221.222 163.599 221.693 163.669 222.016C163.739 222.332 163.839 222.61 163.968 222.851V223H160.997C160.856 222.707 160.751 222.35 160.681 221.928C160.616 221.5 160.584 221.061 160.584 220.609ZM160.944 217.19L160.962 218.772H159.652C159.377 218.772 159.143 218.811 158.949 218.887C158.762 218.963 158.609 219.068 158.492 219.203C158.381 219.332 158.299 219.479 158.246 219.643C158.199 219.807 158.176 219.979 158.176 220.161C158.176 220.337 158.217 220.495 158.299 220.636C158.387 220.771 158.504 220.876 158.65 220.952C158.797 221.028 158.961 221.066 159.143 221.066C159.471 221.066 159.749 221.005 159.978 220.882C160.212 220.753 160.391 220.598 160.514 220.416C160.637 220.234 160.698 220.064 160.698 219.906L161.349 221.119C161.231 221.354 161.097 221.591 160.944 221.831C160.798 222.071 160.613 222.294 160.391 222.499C160.174 222.698 159.907 222.862 159.591 222.991C159.274 223.114 158.891 223.176 158.439 223.176C157.854 223.176 157.314 223.056 156.822 222.815C156.336 222.575 155.946 222.241 155.653 221.813C155.36 221.38 155.214 220.882 155.214 220.319C155.214 219.827 155.302 219.388 155.478 219.001C155.659 218.614 155.932 218.286 156.295 218.017C156.658 217.747 157.121 217.542 157.684 217.401C158.246 217.261 158.908 217.19 159.67 217.19H160.944ZM169.224 220.891C169.499 220.891 169.733 220.841 169.927 220.741C170.126 220.636 170.275 220.489 170.375 220.302C170.48 220.108 170.53 219.877 170.524 219.607H173.311C173.316 220.322 173.141 220.949 172.783 221.488C172.432 222.021 171.951 222.438 171.342 222.736C170.738 223.029 170.056 223.176 169.294 223.176C168.55 223.176 167.899 223.056 167.343 222.815C166.786 222.569 166.32 222.229 165.945 221.796C165.576 221.356 165.298 220.844 165.11 220.258C164.929 219.672 164.838 219.036 164.838 218.351V218.148C164.838 217.463 164.929 216.827 165.11 216.241C165.298 215.649 165.576 215.137 165.945 214.703C166.32 214.264 166.783 213.924 167.334 213.684C167.891 213.438 168.538 213.314 169.276 213.314C170.067 213.314 170.765 213.464 171.368 213.763C171.978 214.062 172.455 214.495 172.801 215.063C173.146 215.632 173.316 216.32 173.311 217.129H170.524C170.53 216.842 170.486 216.584 170.393 216.355C170.299 216.127 170.152 215.945 169.953 215.811C169.76 215.67 169.511 215.6 169.206 215.6C168.901 215.6 168.655 215.667 168.468 215.802C168.28 215.937 168.137 216.124 168.037 216.364C167.943 216.599 167.879 216.868 167.844 217.173C167.814 217.478 167.8 217.803 167.8 218.148V218.351C167.8 218.702 167.814 219.033 167.844 219.344C167.879 219.648 167.946 219.918 168.046 220.152C168.146 220.381 168.289 220.562 168.477 220.697C168.664 220.826 168.913 220.891 169.224 220.891ZM179.586 213.49V215.547H173.855V213.49H179.586ZM175.06 211.126H178.021V219.897C178.021 220.149 178.051 220.346 178.109 220.486C178.168 220.621 178.268 220.718 178.408 220.776C178.555 220.829 178.748 220.855 178.988 220.855C179.158 220.855 179.299 220.853 179.41 220.847C179.521 220.835 179.627 220.82 179.727 220.803V222.921C179.475 223.003 179.211 223.064 178.936 223.105C178.66 223.152 178.367 223.176 178.057 223.176C177.424 223.176 176.882 223.076 176.431 222.877C175.985 222.678 175.646 222.364 175.411 221.937C175.177 221.509 175.06 220.952 175.06 220.267V211.126ZM196.074 210.203V223H192.998L188.472 215.037V223H185.387V210.203H188.472L192.998 218.166V210.203H196.074ZM202.824 220.609V216.689C202.824 216.42 202.786 216.188 202.71 215.995C202.634 215.802 202.514 215.652 202.35 215.547C202.186 215.436 201.966 215.38 201.69 215.38C201.468 215.38 201.277 215.418 201.119 215.494C200.961 215.57 200.841 215.685 200.759 215.837C200.677 215.989 200.636 216.183 200.636 216.417H197.674C197.674 215.978 197.771 215.57 197.964 215.195C198.163 214.814 198.444 214.483 198.808 214.202C199.177 213.921 199.616 213.704 200.126 213.552C200.642 213.394 201.216 213.314 201.849 213.314C202.604 213.314 203.278 213.44 203.87 213.692C204.468 213.944 204.939 214.322 205.285 214.826C205.631 215.324 205.804 215.951 205.804 216.707V220.601C205.804 221.222 205.839 221.693 205.909 222.016C205.979 222.332 206.079 222.61 206.208 222.851V223H203.237C203.097 222.707 202.991 222.35 202.921 221.928C202.856 221.5 202.824 221.061 202.824 220.609ZM203.185 217.19L203.202 218.772H201.893C201.617 218.772 201.383 218.811 201.189 218.887C201.002 218.963 200.85 219.068 200.732 219.203C200.621 219.332 200.539 219.479 200.486 219.643C200.439 219.807 200.416 219.979 200.416 220.161C200.416 220.337 200.457 220.495 200.539 220.636C200.627 220.771 200.744 220.876 200.891 220.952C201.037 221.028 201.201 221.066 201.383 221.066C201.711 221.066 201.989 221.005 202.218 220.882C202.452 220.753 202.631 220.598 202.754 220.416C202.877 220.234 202.938 220.064 202.938 219.906L203.589 221.119C203.472 221.354 203.337 221.591 203.185 221.831C203.038 222.071 202.854 222.294 202.631 222.499C202.414 222.698 202.147 222.862 201.831 222.991C201.515 223.114 201.131 223.176 200.68 223.176C200.094 223.176 199.555 223.056 199.062 222.815C198.576 222.575 198.187 222.241 197.894 221.813C197.601 221.38 197.454 220.882 197.454 220.319C197.454 219.827 197.542 219.388 197.718 219.001C197.899 218.614 198.172 218.286 198.535 218.017C198.898 217.747 199.361 217.542 199.924 217.401C200.486 217.261 201.148 217.19 201.91 217.19H203.185ZM212.457 213.49V215.547H206.727V213.49H212.457ZM207.931 211.126H210.893V219.897C210.893 220.149 210.922 220.346 210.98 220.486C211.039 220.621 211.139 220.718 211.279 220.776C211.426 220.829 211.619 220.855 211.859 220.855C212.029 220.855 212.17 220.853 212.281 220.847C212.393 220.835 212.498 220.82 212.598 220.803V222.921C212.346 223.003 212.082 223.064 211.807 223.105C211.531 223.152 211.238 223.176 210.928 223.176C210.295 223.176 209.753 223.076 209.302 222.877C208.856 222.678 208.517 222.364 208.282 221.937C208.048 221.509 207.931 220.952 207.931 220.267V211.126ZM216.764 213.49V223H213.793V213.49H216.764ZM213.617 211.038C213.617 210.616 213.77 210.271 214.074 210.001C214.379 209.731 214.774 209.597 215.261 209.597C215.747 209.597 216.143 209.731 216.447 210.001C216.752 210.271 216.904 210.616 216.904 211.038C216.904 211.46 216.752 211.806 216.447 212.075C216.143 212.345 215.747 212.479 215.261 212.479C214.774 212.479 214.379 212.345 214.074 212.075C213.77 211.806 213.617 211.46 213.617 211.038ZM222.02 220.97L223.892 213.49H227.012L223.9 223H222.055L222.02 220.97ZM220.912 213.49L222.758 220.97L222.74 223H220.886L217.783 213.49H220.912ZM232.373 223.176C231.6 223.176 230.908 223.056 230.299 222.815C229.689 222.569 229.174 222.232 228.752 221.805C228.336 221.377 228.017 220.885 227.794 220.328C227.577 219.771 227.469 219.183 227.469 218.562V218.228C227.469 217.53 227.565 216.886 227.759 216.294C227.952 215.696 228.239 215.175 228.62 214.729C229.001 214.284 229.479 213.938 230.053 213.692C230.627 213.44 231.295 213.314 232.057 213.314C232.73 213.314 233.334 213.423 233.867 213.64C234.4 213.856 234.852 214.167 235.221 214.571C235.596 214.976 235.88 215.465 236.073 216.039C236.272 216.613 236.372 217.258 236.372 217.973V219.177H228.603V217.322H233.48V217.094C233.486 216.777 233.431 216.508 233.313 216.285C233.202 216.062 233.038 215.893 232.821 215.775C232.604 215.658 232.341 215.6 232.03 215.6C231.708 215.6 231.441 215.67 231.23 215.811C231.025 215.951 230.864 216.145 230.747 216.391C230.636 216.631 230.557 216.909 230.51 217.226C230.463 217.542 230.439 217.876 230.439 218.228V218.562C230.439 218.913 230.486 219.232 230.58 219.52C230.68 219.807 230.82 220.053 231.002 220.258C231.189 220.457 231.412 220.612 231.67 220.724C231.934 220.835 232.232 220.891 232.566 220.891C232.971 220.891 233.369 220.814 233.762 220.662C234.154 220.51 234.491 220.258 234.772 219.906L236.117 221.506C235.924 221.781 235.648 222.048 235.291 222.306C234.939 222.563 234.518 222.774 234.025 222.938C233.533 223.097 232.982 223.176 232.373 223.176Z" fill="white"/>
<rect x="279" y="196" width="91" height="41" rx="3" fill="#424242"/>
<rect x="279" y="196" width="91" height="41" rx="3" stroke="#424242" stroke-width="4"/>
<path d="M302.141 210.203H307.177C308.161 210.203 309.017 210.35 309.743 210.643C310.47 210.936 311.029 211.369 311.422 211.943C311.82 212.518 312.02 213.227 312.02 214.07C312.02 214.803 311.905 215.415 311.677 215.907C311.448 216.399 311.129 216.807 310.719 217.129C310.314 217.445 309.843 217.706 309.304 217.911L308.293 218.482H304.065L304.048 216.101H307.177C307.569 216.101 307.895 216.03 308.152 215.89C308.41 215.749 308.604 215.55 308.732 215.292C308.867 215.028 308.935 214.715 308.935 214.352C308.935 213.982 308.867 213.666 308.732 213.402C308.598 213.139 308.398 212.937 308.135 212.796C307.877 212.655 307.558 212.585 307.177 212.585H305.226V223H302.141V210.203ZM309.146 223L306.315 217.34L309.585 217.322L312.45 222.868V223H309.146ZM318.348 223.176C317.574 223.176 316.883 223.056 316.273 222.815C315.664 222.569 315.148 222.232 314.727 221.805C314.311 221.377 313.991 220.885 313.769 220.328C313.552 219.771 313.443 219.183 313.443 218.562V218.228C313.443 217.53 313.54 216.886 313.733 216.294C313.927 215.696 314.214 215.175 314.595 214.729C314.976 214.284 315.453 213.938 316.027 213.692C316.602 213.44 317.27 213.314 318.031 213.314C318.705 213.314 319.309 213.423 319.842 213.64C320.375 213.856 320.826 214.167 321.195 214.571C321.57 214.976 321.854 215.465 322.048 216.039C322.247 216.613 322.347 217.258 322.347 217.973V219.177H314.577V217.322H319.455V217.094C319.461 216.777 319.405 216.508 319.288 216.285C319.177 216.062 319.013 215.893 318.796 215.775C318.579 215.658 318.315 215.6 318.005 215.6C317.683 215.6 317.416 215.67 317.205 215.811C317 215.951 316.839 216.145 316.722 216.391C316.61 216.631 316.531 216.909 316.484 217.226C316.438 217.542 316.414 217.876 316.414 218.228V218.562C316.414 218.913 316.461 219.232 316.555 219.52C316.654 219.807 316.795 220.053 316.977 220.258C317.164 220.457 317.387 220.612 317.645 220.724C317.908 220.835 318.207 220.891 318.541 220.891C318.945 220.891 319.344 220.814 319.736 220.662C320.129 220.51 320.466 220.258 320.747 219.906L322.092 221.506C321.898 221.781 321.623 222.048 321.266 222.306C320.914 222.563 320.492 222.774 320 222.938C319.508 223.097 318.957 223.176 318.348 223.176ZM328.49 220.609V216.689C328.49 216.42 328.452 216.188 328.376 215.995C328.3 215.802 328.18 215.652 328.016 215.547C327.852 215.436 327.632 215.38 327.356 215.38C327.134 215.38 326.943 215.418 326.785 215.494C326.627 215.57 326.507 215.685 326.425 215.837C326.343 215.989 326.302 216.183 326.302 216.417H323.34C323.34 215.978 323.437 215.57 323.63 215.195C323.829 214.814 324.11 214.483 324.474 214.202C324.843 213.921 325.282 213.704 325.792 213.552C326.308 213.394 326.882 213.314 327.515 213.314C328.271 213.314 328.944 213.44 329.536 213.692C330.134 213.944 330.605 214.322 330.951 214.826C331.297 215.324 331.47 215.951 331.47 216.707V220.601C331.47 221.222 331.505 221.693 331.575 222.016C331.646 222.332 331.745 222.61 331.874 222.851V223H328.903C328.763 222.707 328.657 222.35 328.587 221.928C328.522 221.5 328.49 221.061 328.49 220.609ZM328.851 217.19L328.868 218.772H327.559C327.283 218.772 327.049 218.811 326.855 218.887C326.668 218.963 326.516 219.068 326.398 219.203C326.287 219.332 326.205 219.479 326.152 219.643C326.105 219.807 326.082 219.979 326.082 220.161C326.082 220.337 326.123 220.495 326.205 220.636C326.293 220.771 326.41 220.876 326.557 220.952C326.703 221.028 326.867 221.066 327.049 221.066C327.377 221.066 327.655 221.005 327.884 220.882C328.118 220.753 328.297 220.598 328.42 220.416C328.543 220.234 328.604 220.064 328.604 219.906L329.255 221.119C329.138 221.354 329.003 221.591 328.851 221.831C328.704 222.071 328.52 222.294 328.297 222.499C328.08 222.698 327.813 222.862 327.497 222.991C327.181 223.114 326.797 223.176 326.346 223.176C325.76 223.176 325.221 223.056 324.729 222.815C324.242 222.575 323.853 222.241 323.56 221.813C323.267 221.38 323.12 220.882 323.12 220.319C323.12 219.827 323.208 219.388 323.384 219.001C323.565 218.614 323.838 218.286 324.201 218.017C324.564 217.747 325.027 217.542 325.59 217.401C326.152 217.261 326.814 217.19 327.576 217.19H328.851ZM337.13 220.891C337.405 220.891 337.64 220.841 337.833 220.741C338.032 220.636 338.182 220.489 338.281 220.302C338.387 220.108 338.437 219.877 338.431 219.607H341.217C341.223 220.322 341.047 220.949 340.689 221.488C340.338 222.021 339.857 222.438 339.248 222.736C338.645 223.029 337.962 223.176 337.2 223.176C336.456 223.176 335.806 223.056 335.249 222.815C334.692 222.569 334.227 222.229 333.852 221.796C333.482 221.356 333.204 220.844 333.017 220.258C332.835 219.672 332.744 219.036 332.744 218.351V218.148C332.744 217.463 332.835 216.827 333.017 216.241C333.204 215.649 333.482 215.137 333.852 214.703C334.227 214.264 334.689 213.924 335.24 213.684C335.797 213.438 336.444 213.314 337.183 213.314C337.974 213.314 338.671 213.464 339.274 213.763C339.884 214.062 340.361 214.495 340.707 215.063C341.053 215.632 341.223 216.32 341.217 217.129H338.431C338.437 216.842 338.393 216.584 338.299 216.355C338.205 216.127 338.059 215.945 337.859 215.811C337.666 215.67 337.417 215.6 337.112 215.6C336.808 215.6 336.562 215.667 336.374 215.802C336.187 215.937 336.043 216.124 335.943 216.364C335.85 216.599 335.785 216.868 335.75 217.173C335.721 217.478 335.706 217.803 335.706 218.148V218.351C335.706 218.702 335.721 219.033 335.75 219.344C335.785 219.648 335.853 219.918 335.952 220.152C336.052 220.381 336.195 220.562 336.383 220.697C336.57 220.826 336.819 220.891 337.13 220.891ZM347.492 213.49V215.547H341.762V213.49H347.492ZM342.966 211.126H345.928V219.897C345.928 220.149 345.957 220.346 346.016 220.486C346.074 220.621 346.174 220.718 346.314 220.776C346.461 220.829 346.654 220.855 346.895 220.855C347.064 220.855 347.205 220.853 347.316 220.847C347.428 220.835 347.533 220.82 347.633 220.803V222.921C347.381 223.003 347.117 223.064 346.842 223.105C346.566 223.152 346.273 223.176 345.963 223.176C345.33 223.176 344.788 223.076 344.337 222.877C343.892 222.678 343.552 222.364 343.317 221.937C343.083 221.509 342.966 220.952 342.966 220.267V211.126Z" fill="white"/>
<rect x="390" y="196" width="104" height="41" rx="3" fill="#424242"/>
<rect x="390" y="196" width="104" height="41" rx="3" stroke="#424242" stroke-width="4"/>
<path d="M421.812 220.627V223H415.343V220.627H421.812ZM416.441 210.203V223H413.356V210.203H416.441ZM427.911 220.609V216.689C427.911 216.42 427.873 216.188 427.797 215.995C427.721 215.802 427.601 215.652 427.437 215.547C427.272 215.436 427.053 215.38 426.777 215.38C426.555 215.38 426.364 215.418 426.206 215.494C426.048 215.57 425.928 215.685 425.846 215.837C425.764 215.989 425.723 216.183 425.723 216.417H422.761C422.761 215.978 422.857 215.57 423.051 215.195C423.25 214.814 423.531 214.483 423.895 214.202C424.264 213.921 424.703 213.704 425.213 213.552C425.729 213.394 426.303 213.314 426.936 213.314C427.691 213.314 428.365 213.44 428.957 213.692C429.555 213.944 430.026 214.322 430.372 214.826C430.718 215.324 430.891 215.951 430.891 216.707V220.601C430.891 221.222 430.926 221.693 430.996 222.016C431.066 222.332 431.166 222.61 431.295 222.851V223H428.324C428.184 222.707 428.078 222.35 428.008 221.928C427.943 221.5 427.911 221.061 427.911 220.609ZM428.271 217.19L428.289 218.772H426.979C426.704 218.772 426.47 218.811 426.276 218.887C426.089 218.963 425.937 219.068 425.819 219.203C425.708 219.332 425.626 219.479 425.573 219.643C425.526 219.807 425.503 219.979 425.503 220.161C425.503 220.337 425.544 220.495 425.626 220.636C425.714 220.771 425.831 220.876 425.978 220.952C426.124 221.028 426.288 221.066 426.47 221.066C426.798 221.066 427.076 221.005 427.305 220.882C427.539 220.753 427.718 220.598 427.841 220.416C427.964 220.234 428.025 220.064 428.025 219.906L428.676 221.119C428.559 221.354 428.424 221.591 428.271 221.831C428.125 222.071 427.94 222.294 427.718 222.499C427.501 222.698 427.234 222.862 426.918 222.991C426.602 223.114 426.218 223.176 425.767 223.176C425.181 223.176 424.642 223.056 424.149 222.815C423.663 222.575 423.273 222.241 422.98 221.813C422.688 221.38 422.541 220.882 422.541 220.319C422.541 219.827 422.629 219.388 422.805 219.001C422.986 218.614 423.259 218.286 423.622 218.017C423.985 217.747 424.448 217.542 425.011 217.401C425.573 217.261 426.235 217.19 426.997 217.19H428.271ZM435.522 215.846V223H432.561V213.49H435.329L435.522 215.846ZM438.335 213.42L438.282 216.171C438.165 216.159 438.007 216.145 437.808 216.127C437.608 216.109 437.441 216.101 437.307 216.101C436.961 216.101 436.662 216.142 436.41 216.224C436.164 216.3 435.959 216.417 435.795 216.575C435.637 216.728 435.52 216.921 435.443 217.155C435.373 217.39 435.341 217.662 435.347 217.973L434.811 217.621C434.811 216.982 434.872 216.402 434.995 215.881C435.124 215.354 435.306 214.899 435.54 214.519C435.774 214.132 436.059 213.836 436.393 213.631C436.727 213.42 437.102 213.314 437.518 213.314C437.664 213.314 437.808 213.323 437.948 213.341C438.095 213.358 438.224 213.385 438.335 213.42ZM444.03 220.609V216.689C444.03 216.42 443.992 216.188 443.916 215.995C443.84 215.802 443.72 215.652 443.556 215.547C443.392 215.436 443.172 215.38 442.896 215.38C442.674 215.38 442.483 215.418 442.325 215.494C442.167 215.57 442.047 215.685 441.965 215.837C441.883 215.989 441.842 216.183 441.842 216.417H438.88C438.88 215.978 438.977 215.57 439.17 215.195C439.369 214.814 439.65 214.483 440.014 214.202C440.383 213.921 440.822 213.704 441.332 213.552C441.848 213.394 442.422 213.314 443.055 213.314C443.811 213.314 444.484 213.44 445.076 213.692C445.674 213.944 446.146 214.322 446.491 214.826C446.837 215.324 447.01 215.951 447.01 216.707V220.601C447.01 221.222 447.045 221.693 447.115 222.016C447.186 222.332 447.285 222.61 447.414 222.851V223H444.443C444.303 222.707 444.197 222.35 444.127 221.928C444.062 221.5 444.03 221.061 444.03 220.609ZM444.391 217.19L444.408 218.772H443.099C442.823 218.772 442.589 218.811 442.396 218.887C442.208 218.963 442.056 219.068 441.938 219.203C441.827 219.332 441.745 219.479 441.692 219.643C441.646 219.807 441.622 219.979 441.622 220.161C441.622 220.337 441.663 220.495 441.745 220.636C441.833 220.771 441.95 220.876 442.097 220.952C442.243 221.028 442.407 221.066 442.589 221.066C442.917 221.066 443.195 221.005 443.424 220.882C443.658 220.753 443.837 220.598 443.96 220.416C444.083 220.234 444.145 220.064 444.145 219.906L444.795 221.119C444.678 221.354 444.543 221.591 444.391 221.831C444.244 222.071 444.06 222.294 443.837 222.499C443.62 222.698 443.354 222.862 443.037 222.991C442.721 223.114 442.337 223.176 441.886 223.176C441.3 223.176 440.761 223.056 440.269 222.815C439.782 222.575 439.393 222.241 439.1 221.813C438.807 221.38 438.66 220.882 438.66 220.319C438.66 219.827 438.748 219.388 438.924 219.001C439.105 218.614 439.378 218.286 439.741 218.017C440.104 217.747 440.567 217.542 441.13 217.401C441.692 217.261 442.354 217.19 443.116 217.19H444.391ZM451.94 220.97L453.812 213.49H456.933L453.821 223H451.976L451.94 220.97ZM450.833 213.49L452.679 220.97L452.661 223H450.807L447.704 213.49H450.833ZM462.294 223.176C461.521 223.176 460.829 223.056 460.22 222.815C459.61 222.569 459.095 222.232 458.673 221.805C458.257 221.377 457.938 220.885 457.715 220.328C457.498 219.771 457.39 219.183 457.39 218.562V218.228C457.39 217.53 457.486 216.886 457.68 216.294C457.873 215.696 458.16 215.175 458.541 214.729C458.922 214.284 459.399 213.938 459.974 213.692C460.548 213.44 461.216 213.314 461.978 213.314C462.651 213.314 463.255 213.423 463.788 213.64C464.321 213.856 464.772 214.167 465.142 214.571C465.517 214.976 465.801 215.465 465.994 216.039C466.193 216.613 466.293 217.258 466.293 217.973V219.177H458.523V217.322H463.401V217.094C463.407 216.777 463.352 216.508 463.234 216.285C463.123 216.062 462.959 215.893 462.742 215.775C462.525 215.658 462.262 215.6 461.951 215.6C461.629 215.6 461.362 215.67 461.151 215.811C460.946 215.951 460.785 216.145 460.668 216.391C460.557 216.631 460.478 216.909 460.431 217.226C460.384 217.542 460.36 217.876 460.36 218.228V218.562C460.36 218.913 460.407 219.232 460.501 219.52C460.601 219.807 460.741 220.053 460.923 220.258C461.11 220.457 461.333 220.612 461.591 220.724C461.854 220.835 462.153 220.891 462.487 220.891C462.892 220.891 463.29 220.814 463.683 220.662C464.075 220.51 464.412 220.258 464.693 219.906L466.038 221.506C465.845 221.781 465.569 222.048 465.212 222.306C464.86 222.563 464.438 222.774 463.946 222.938C463.454 223.097 462.903 223.176 462.294 223.176ZM470.626 209.5V223H467.655V209.5H470.626Z" fill="white"/>
<rect x="514" y="196" width="102" height="41" rx="3" fill="#424242"/>
<rect x="514" y="196" width="102" height="41" rx="3" stroke="#424242" stroke-width="4"/>
<path d="M542.166 218.658H538.984V216.276H542.166C542.6 216.276 542.951 216.203 543.221 216.057C543.49 215.91 543.687 215.708 543.81 215.45C543.938 215.187 544.003 214.891 544.003 214.562C544.003 214.211 543.938 213.886 543.81 213.587C543.687 213.288 543.49 213.048 543.221 212.866C542.951 212.679 542.6 212.585 542.166 212.585H540.145V223H537.06V210.203H542.166C543.191 210.203 544.073 210.391 544.812 210.766C545.556 211.141 546.127 211.656 546.525 212.312C546.924 212.963 547.123 213.707 547.123 214.545C547.123 215.371 546.924 216.092 546.525 216.707C546.127 217.322 545.556 217.803 544.812 218.148C544.073 218.488 543.191 218.658 542.166 218.658ZM551.702 221.884L554.163 213.49H557.345L553.521 224.415C553.439 224.655 553.331 224.913 553.196 225.188C553.062 225.47 552.877 225.736 552.643 225.988C552.408 226.24 552.106 226.445 551.737 226.604C551.374 226.762 550.923 226.841 550.384 226.841C550.097 226.841 549.886 226.826 549.751 226.797C549.622 226.773 549.423 226.729 549.153 226.665V224.547C549.229 224.547 549.294 224.547 549.347 224.547C549.405 224.547 549.47 224.547 549.54 224.547C549.856 224.547 550.108 224.515 550.296 224.45C550.489 224.386 550.636 224.292 550.735 224.169C550.841 224.046 550.923 223.896 550.981 223.721L551.702 221.884ZM551.078 213.49L552.95 220.144L553.275 223.281H551.289L547.905 213.49H551.078ZM563.128 213.49V215.547H557.397V213.49H563.128ZM558.602 211.126H561.563V219.897C561.563 220.149 561.593 220.346 561.651 220.486C561.71 220.621 561.81 220.718 561.95 220.776C562.097 220.829 562.29 220.855 562.53 220.855C562.7 220.855 562.841 220.853 562.952 220.847C563.063 220.835 563.169 220.82 563.269 220.803V222.921C563.017 223.003 562.753 223.064 562.478 223.105C562.202 223.152 561.909 223.176 561.599 223.176C560.966 223.176 560.424 223.076 559.973 222.877C559.527 222.678 559.188 222.364 558.953 221.937C558.719 221.509 558.602 220.952 558.602 220.267V211.126ZM567.206 209.5V223H564.244V209.5H567.206ZM566.854 217.92L566.16 217.938C566.16 217.27 566.242 216.654 566.406 216.092C566.57 215.529 566.805 215.04 567.109 214.624C567.414 214.208 567.78 213.886 568.208 213.657C568.636 213.429 569.11 213.314 569.632 213.314C570.101 213.314 570.528 213.382 570.915 213.517C571.308 213.651 571.645 213.868 571.926 214.167C572.213 214.466 572.433 214.855 572.585 215.336C572.743 215.816 572.822 216.402 572.822 217.094V223H569.843V217.076C569.843 216.689 569.787 216.391 569.676 216.18C569.57 215.963 569.418 215.813 569.219 215.731C569.02 215.644 568.776 215.6 568.489 215.6C568.144 215.6 567.862 215.658 567.646 215.775C567.429 215.893 567.262 216.057 567.145 216.268C567.033 216.473 566.957 216.716 566.916 216.997C566.875 217.278 566.854 217.586 566.854 217.92ZM574.097 218.342V218.157C574.097 217.46 574.196 216.818 574.396 216.232C574.595 215.641 574.888 215.128 575.274 214.694C575.661 214.261 576.139 213.924 576.707 213.684C577.275 213.438 577.932 213.314 578.676 213.314C579.426 213.314 580.085 213.438 580.653 213.684C581.228 213.924 581.708 214.261 582.095 214.694C582.481 215.128 582.774 215.641 582.974 216.232C583.173 216.818 583.272 217.46 583.272 218.157V218.342C583.272 219.033 583.173 219.675 582.974 220.267C582.774 220.853 582.481 221.365 582.095 221.805C581.708 222.238 581.23 222.575 580.662 222.815C580.094 223.056 579.438 223.176 578.693 223.176C577.949 223.176 577.29 223.056 576.716 222.815C576.142 222.575 575.661 222.238 575.274 221.805C574.888 221.365 574.595 220.853 574.396 220.267C574.196 219.675 574.097 219.033 574.097 218.342ZM577.059 218.157V218.342C577.059 218.699 577.085 219.033 577.138 219.344C577.19 219.654 577.278 219.927 577.401 220.161C577.524 220.39 577.691 220.568 577.902 220.697C578.113 220.826 578.377 220.891 578.693 220.891C579.004 220.891 579.262 220.826 579.467 220.697C579.678 220.568 579.845 220.39 579.968 220.161C580.091 219.927 580.179 219.654 580.231 219.344C580.284 219.033 580.311 218.699 580.311 218.342V218.157C580.311 217.812 580.284 217.486 580.231 217.182C580.179 216.871 580.091 216.599 579.968 216.364C579.845 216.124 579.678 215.937 579.467 215.802C579.256 215.667 578.992 215.6 578.676 215.6C578.365 215.6 578.104 215.667 577.894 215.802C577.688 215.937 577.524 216.124 577.401 216.364C577.278 216.599 577.19 216.871 577.138 217.182C577.085 217.486 577.059 217.812 577.059 218.157ZM587.5 215.521V223H584.538V213.49H587.315L587.5 215.521ZM587.148 217.92L586.454 217.938C586.454 217.211 586.542 216.563 586.718 215.995C586.894 215.421 587.143 214.935 587.465 214.536C587.787 214.138 588.171 213.836 588.616 213.631C589.067 213.42 589.568 213.314 590.119 213.314C590.559 213.314 590.96 213.379 591.323 213.508C591.692 213.637 592.009 213.845 592.272 214.132C592.542 214.419 592.747 214.8 592.888 215.274C593.034 215.743 593.107 216.323 593.107 217.015V223H590.128V217.006C590.128 216.625 590.075 216.335 589.97 216.136C589.864 215.931 589.712 215.79 589.513 215.714C589.313 215.638 589.07 215.6 588.783 215.6C588.479 215.6 588.221 215.658 588.01 215.775C587.799 215.893 587.629 216.057 587.5 216.268C587.377 216.473 587.286 216.716 587.228 216.997C587.175 217.278 587.148 217.586 587.148 217.92Z" fill="white"/>
<rect x="636" y="196" width="131" height="41" rx="3" fill="#424242"/>
<rect x="636" y="196" width="131" height="41" rx="3" stroke="#424242" stroke-width="4"/>
<path d="M675.678 212.893L672.558 223H669.244L673.946 210.203H676.047L675.678 212.893ZM678.262 223L675.133 212.893L674.729 210.203H676.855L681.584 223H678.262ZM678.139 218.228V220.609H671.573V218.228H678.139ZM685.372 215.846V223H682.41V213.49H685.179L685.372 215.846ZM688.185 213.42L688.132 216.171C688.015 216.159 687.856 216.145 687.657 216.127C687.458 216.109 687.291 216.101 687.156 216.101C686.811 216.101 686.512 216.142 686.26 216.224C686.014 216.3 685.809 216.417 685.645 216.575C685.486 216.728 685.369 216.921 685.293 217.155C685.223 217.39 685.19 217.662 685.196 217.973L684.66 217.621C684.66 216.982 684.722 216.402 684.845 215.881C684.974 215.354 685.155 214.899 685.39 214.519C685.624 214.132 685.908 213.836 686.242 213.631C686.576 213.42 686.951 213.314 687.367 213.314C687.514 213.314 687.657 213.323 687.798 213.341C687.944 213.358 688.073 213.385 688.185 213.42ZM694.495 220.82V209.5H697.475V223H694.803L694.495 220.82ZM688.659 218.359V218.175C688.659 217.454 688.738 216.798 688.896 216.206C689.055 215.608 689.289 215.096 689.6 214.668C689.91 214.234 690.297 213.9 690.76 213.666C691.223 213.432 691.756 213.314 692.359 213.314C692.898 213.314 693.37 213.44 693.774 213.692C694.179 213.938 694.524 214.284 694.812 214.729C695.099 215.175 695.333 215.696 695.515 216.294C695.696 216.886 695.834 217.524 695.928 218.21V218.43C695.834 219.074 695.696 219.684 695.515 220.258C695.333 220.826 695.099 221.33 694.812 221.77C694.524 222.209 694.176 222.555 693.766 222.807C693.361 223.053 692.887 223.176 692.342 223.176C691.738 223.176 691.205 223.056 690.742 222.815C690.285 222.575 689.901 222.238 689.591 221.805C689.286 221.371 689.055 220.861 688.896 220.275C688.738 219.689 688.659 219.051 688.659 218.359ZM691.621 218.175V218.359C691.621 218.717 691.645 219.048 691.691 219.353C691.738 219.657 691.817 219.927 691.929 220.161C692.046 220.39 692.198 220.568 692.386 220.697C692.579 220.826 692.816 220.891 693.098 220.891C693.479 220.891 693.792 220.8 694.038 220.618C694.29 220.437 694.475 220.179 694.592 219.845C694.715 219.511 694.768 219.118 694.75 218.667V217.973C694.762 217.586 694.735 217.246 694.671 216.953C694.606 216.654 694.504 216.405 694.363 216.206C694.229 216.007 694.056 215.857 693.845 215.758C693.64 215.652 693.396 215.6 693.115 215.6C692.84 215.6 692.605 215.664 692.412 215.793C692.225 215.922 692.072 216.104 691.955 216.338C691.838 216.566 691.753 216.839 691.7 217.155C691.647 217.466 691.621 217.806 691.621 218.175ZM704.708 220.688V213.49H707.679V223H704.901L704.708 220.688ZM704.989 218.755L705.763 218.737C705.763 219.376 705.687 219.968 705.534 220.513C705.382 221.052 705.156 221.521 704.857 221.919C704.564 222.317 704.201 222.628 703.768 222.851C703.34 223.067 702.845 223.176 702.282 223.176C701.813 223.176 701.383 223.111 700.99 222.982C700.604 222.848 700.27 222.64 699.988 222.358C699.707 222.071 699.487 221.705 699.329 221.26C699.177 220.809 699.101 220.27 699.101 219.643V213.49H702.062V219.66C702.062 219.871 702.089 220.053 702.142 220.205C702.194 220.357 702.271 220.486 702.37 220.592C702.47 220.691 702.593 220.768 702.739 220.82C702.892 220.867 703.064 220.891 703.258 220.891C703.703 220.891 704.052 220.797 704.304 220.609C704.556 220.422 704.731 220.167 704.831 219.845C704.937 219.522 704.989 219.159 704.989 218.755ZM712.442 213.49V223H709.472V213.49H712.442ZM709.296 211.038C709.296 210.616 709.448 210.271 709.753 210.001C710.058 209.731 710.453 209.597 710.939 209.597C711.426 209.597 711.821 209.731 712.126 210.001C712.431 210.271 712.583 210.616 712.583 211.038C712.583 211.46 712.431 211.806 712.126 212.075C711.821 212.345 711.426 212.479 710.939 212.479C710.453 212.479 710.058 212.345 709.753 212.075C709.448 211.806 709.296 211.46 709.296 211.038ZM717.18 215.521V223H714.218V213.49H716.995L717.18 215.521ZM716.828 217.92L716.134 217.938C716.134 217.211 716.222 216.563 716.397 215.995C716.573 215.421 716.822 214.935 717.145 214.536C717.467 214.138 717.851 213.836 718.296 213.631C718.747 213.42 719.248 213.314 719.799 213.314C720.238 213.314 720.64 213.379 721.003 213.508C721.372 213.637 721.688 213.845 721.952 214.132C722.222 214.419 722.427 214.8 722.567 215.274C722.714 215.743 722.787 216.323 722.787 217.015V223H719.808V217.006C719.808 216.625 719.755 216.335 719.649 216.136C719.544 215.931 719.392 215.79 719.192 215.714C718.993 215.638 718.75 215.6 718.463 215.6C718.158 215.6 717.9 215.658 717.689 215.775C717.479 215.893 717.309 216.057 717.18 216.268C717.057 216.473 716.966 216.716 716.907 216.997C716.854 217.278 716.828 217.586 716.828 217.92ZM724.062 218.342V218.157C724.062 217.46 724.161 216.818 724.36 216.232C724.56 215.641 724.853 215.128 725.239 214.694C725.626 214.261 726.104 213.924 726.672 213.684C727.24 213.438 727.896 213.314 728.641 213.314C729.391 213.314 730.05 213.438 730.618 213.684C731.192 213.924 731.673 214.261 732.06 214.694C732.446 215.128 732.739 215.641 732.938 216.232C733.138 216.818 733.237 217.46 733.237 218.157V218.342C733.237 219.033 733.138 219.675 732.938 220.267C732.739 220.853 732.446 221.365 732.06 221.805C731.673 222.238 731.195 222.575 730.627 222.815C730.059 223.056 729.402 223.176 728.658 223.176C727.914 223.176 727.255 223.056 726.681 222.815C726.106 222.575 725.626 222.238 725.239 221.805C724.853 221.365 724.56 220.853 724.36 220.267C724.161 219.675 724.062 219.033 724.062 218.342ZM727.023 218.157V218.342C727.023 218.699 727.05 219.033 727.103 219.344C727.155 219.654 727.243 219.927 727.366 220.161C727.489 220.39 727.656 220.568 727.867 220.697C728.078 220.826 728.342 220.891 728.658 220.891C728.969 220.891 729.227 220.826 729.432 220.697C729.643 220.568 729.81 220.39 729.933 220.161C730.056 219.927 730.144 219.654 730.196 219.344C730.249 219.033 730.275 218.699 730.275 218.342V218.157C730.275 217.812 730.249 217.486 730.196 217.182C730.144 216.871 730.056 216.599 729.933 216.364C729.81 216.124 729.643 215.937 729.432 215.802C729.221 215.667 728.957 215.6 728.641 215.6C728.33 215.6 728.069 215.667 727.858 215.802C727.653 215.937 727.489 216.124 727.366 216.364C727.243 216.599 727.155 216.871 727.103 217.182C727.05 217.486 727.023 217.812 727.023 218.157Z" fill="white"/>
<g clip-path="url(#clip0_3_61)">
<path d="M1066 0H1348C1356.28 0 1363 6.71573 1363 15V282C1363 290.284 1356.28 297 1348 297H1066V0Z" fill="white"/>
<path d="M1216.86 233.839C1197.47 233.839 1181.69 216.936 1181.69 196.151V80.6751C1181.69 59.89 1197.47 42.9874 1216.86 42.9874C1236.25 42.9874 1252.03 59.89 1252.03 80.6751V196.151C1252.03 216.925 1236.25 233.839 1216.86 233.839Z" stroke="#006937" stroke-width="5" stroke-miterlimit="10"/>
<path d="M1176.85 138.408H1261.69C1261.69 138.408 1261.69 183.077 1261.69 197.964C1261.69 212.85 1249.2 244.875 1216.85 244.553C1184.51 244.242 1172.41 212.507 1172.21 200.72C1172.01 188.923 1172.01 138.408 1172.01 138.408H1176.85Z" fill="#22B573"/>
<path d="M1216.86 239.201C1194.8 239.201 1176.85 219.886 1176.85 196.151V80.6751C1176.85 56.9407 1194.8 37.6249 1216.86 37.6249C1238.92 37.6249 1256.87 56.9407 1256.87 80.6751V196.151C1256.87 219.886 1238.92 239.201 1216.86 239.201Z" stroke="white" stroke-width="5" stroke-miterlimit="10"/>
<path d="M1261.7 138.408H1172.03" stroke="#006937" stroke-width="5" stroke-miterlimit="10"/>
<path d="M1259.28 133.099H1174.46" stroke="white" stroke-width="5" stroke-miterlimit="10"/>
<path d="M1248.99 141.143H1261.7C1261.7 141.143 1261.7 185.287 1261.7 200.012C1261.7 214.738 1247.84 244.757 1220.5 246.065V141.143H1248.99Z" fill="#22B573"/>
<path d="M1216.86 32.2625C1192.09 32.2625 1172.02 53.9377 1172.02 80.6751V196.151C1172.02 222.889 1192.09 244.564 1216.86 244.564C1241.63 244.564 1261.7 222.889 1261.7 196.151V80.6751C1261.7 53.9377 1241.63 32.2625 1216.86 32.2625Z" stroke="#006937" stroke-width="5" stroke-miterlimit="10"/>
<path d="M1216.86 36.5953V49.3688L1238.28 58.6781L1242.57 77.6614L1243.88 105.053L1247.01 130.6L1256.87 131.158L1255.36 68.9741L1244.02 49.1007L1230.5 40.2097L1216.86 36.5953Z" fill="white"/>
<path d="M1188.54 92.9981H1176.85V103.401H1188.54V92.9981Z" fill="white"/>
<path d="M1216.87 191.625C1230.47 191.625 1241.49 183.573 1241.49 173.639C1241.49 163.706 1230.47 155.654 1216.87 155.654C1203.27 155.654 1192.25 163.706 1192.25 173.639C1192.25 183.573 1203.27 191.625 1216.87 191.625Z" fill="#006838"/>
<path d="M1231.55 198.382H1202.65V218.191H1231.55V198.382Z" fill="#006838"/>
<path d="M1202.65 218.18H1231.55V198.382H1230.05V216.218H1202.65V218.18Z" fill="white"/>
<path d="M1232.91 163.279H1201.29V166.379H1232.91V163.279Z" fill="white"/>
<path d="M1232.67 170.218H1201.05V173.318H1232.67V170.218Z" fill="white"/>
<path d="M1232.67 177.983H1201.05V181.083H1232.67V177.983Z" fill="white"/>
</g>
<defs>
<clipPath id="clip0_3_61">
<path d="M1066 0H1348C1356.28 0 1363 6.71573 1363 15V282C1363 290.284 1356.28 297 1348 297H1066V0Z" fill="white"/>
</clipPath>
</defs>
</svg>
